# xmcd
#
# Track frame offsets:
#	150
#	16885
#	29512
#	44607
#	63860
#	82552
#	100137
#	116730
#	132777
#	148785
#	163327
#
# Disc length: 2369
#
# Revision: 1
# Processed by: cddbd v1.5.1PL0 Copyright (c) Steve Scherf et al.
# Submitted via: FreeRIP 2.90 
# Normalized: r0:DSETVAR1,TDELIM( - )
#
DISCID=8e093f0b
DTITLE=Various Artist - New Music Sampler
DYEAR=2004
DGENRE=Country
TTITLE0=Montgomery Gentry - You Do Your Thing
TTITLE1=Fairchild, Shelly - You Don't Lie Here Anymore
TTITLE2=Tritt, Travis - What Say You
TTITLE3=Lambert, Miranda - Bring Me Down
TTITLE4=Wilson, Gretchen - When I Think About Cheatin'
TTITLE5=Willmon, Trent - Dixie Rose Deluxe's
TTITLE6=Sutherland, Christy - Freedom
TTITLE7=Randall, Jon - Baby Won't You Come Home
TTITLE8=Jewell, Buddy - Sweet Southern Comfort
TTITLE9=Alexander, Jessi - Make Me Stay Or Make Me Go
TTITLE10=Cotter, Brad - Can't Tell Me Nothin'
EXTD=
EXTT0=
EXTT1=
EXTT2=
EXTT3=
EXTT4=
EXTT5=
EXTT6=
EXTT7=
EXTT8=
EXTT9=
EXTT10=
PLAYORDER=
